HIERARCHY
ROOT Hips
{
	OFFSET 0.000000 0.000000 0.000000 
	CHANNELS 6 Xposition Yposition Zposition Zrotation Yrotation Xrotation
	JOINT LeftUpLeg
	{
		OFFSET 1.363060 -1.794630 0.839290 
		CHANNELS 3 Zrotation Yrotation Xrotation
		JOINT LeftLeg
		{
			OFFSET 2.448110 -6.726130 0.000000 
			CHANNELS 3 Zrotation Yrotation Xrotation
			JOINT LeftFoot
			{
				OFFSET 2.562200 -7.039590 0.000000 
				CHANNELS 3 Zrotation Yrotation Xrotation
				JOINT LeftToeBase
				{
					OFFSET 0.157640 -0.433110 2.322550 
					CHANNELS 3 Zrotation Yrotation Xrotation
					End Site
					{
						OFFSET 0.000000 0.000000 0.000000 
					}
				}
			}
		}
	}
	JOINT RightUpLeg
	{
		OFFSET -1.305520 -1.794630 0.839290 
		CHANNELS 3 Zrotation Yrotation Xrotation
		JOINT RightLeg
		{
			OFFSET -2.542530 -6.985550 0.000000 
			CHANNELS 3 Zrotation Yrotation Xrotation
			JOINT RightFoot
			{
				OFFSET -2.568260 -7.056230 0.000000 
				CHANNELS 3 Zrotation Yrotation Xrotation
				JOINT RightToeBase
				{
					OFFSET -0.164730 -0.452590 2.363150 
					CHANNELS 3 Zrotation Yrotation Xrotation
					End Site
					{
						OFFSET 0.000000 0.000000 0.000000 
					}
				}
			}
		}
	}
	JOINT Spine
	{
		OFFSET 0.028270 2.035590 -0.193380 
		CHANNELS 3 Zrotation Yrotation Xrotation
		JOINT Spine1
		{
			OFFSET 0.056720 2.048850 -0.042750 
			CHANNELS 3 Zrotation Yrotation Xrotation
			JOINT Neck1
			{
				OFFSET -0.054170 1.746240 0.172020 
				CHANNELS 3 Zrotation Yrotation Xrotation
				JOINT Head
				{
					OFFSET 0.104070 1.761360 -0.123970 
					CHANNELS 3 Zrotation Yrotation Xrotation
					End Site
					{
						OFFSET 0.000000 0.000000 0.000000 
					}
				}
			}
			JOINT LeftArm
			{
				OFFSET 3.362410 1.200890 -0.311210 
				CHANNELS 3 Zrotation Yrotation Xrotation
				JOINT LeftForeArm
				{
					OFFSET 4.983000 -0.000000 -0.000000 
					CHANNELS 3 Zrotation Yrotation Xrotation
					JOINT LeftHand
					{
						OFFSET 3.483560 -0.000000 -0.000000 
						CHANNELS 3 Zrotation Yrotation Xrotation
						JOINT LeftHandIndex1
						{
							OFFSET 0.715260 -0.000000 -0.000000 
							CHANNELS 3 Zrotation Yrotation Xrotation
							End Site
							{
								OFFSET 0.000000 0.000000 0.000000 
							}
						}
					}
				}
			}
			JOINT RightArm
			{
				OFFSET -3.136600 1.374050 -0.404650 
				CHANNELS 3 Zrotation Yrotation Xrotation
				JOINT RightForeArm
				{
					OFFSET -5.241900 -0.000000 -0.000000 
					CHANNELS 3 Zrotation Yrotation Xrotation
					JOINT RightHand
					{
						OFFSET -3.444170 -0.000000 -0.000000 
						CHANNELS 3 Zrotation Yrotation Xrotation
						JOINT RightHandIndex1
						{
							OFFSET -0.622530 -0.000000 -0.000000 
							CHANNELS 3 Zrotation Yrotation Xrotation
							End Site
							{
								OFFSET 0.000000 0.000000 0.000000 
							}
						}
					}
				}
			}
		}
	}
}
MOTION
Frames: 15
Frame Time: 0.041667
-31.808331 17.238674 -1.283890 122.161865 84.134258 137.545602 -15.864358 2.224621 13.806976 -1.325758 4.890376 15.139216 -0.577373 8.603878 21.473019 0.821000 -5.781600 -16.151900 9.836379 16.143198 -55.951991 -16.445147 -24.062454 79.229119 0.391182 -1.749249 2.293446 -3.264200 11.110900 -32.654900 1.393381 -6.950605 -2.854473 9.950764 -4.604023 2.694191 3.621121 3.011369 7.506809 6.067000 2.315200 0.955800 -73.928500 -1.283834 42.406835 84.669910 -60.092146 -56.788267 -1.592743 -0.206176 -23.220359 -7.125000 0.000000 0.000000 78.255915 19.576853 1.313185 -73.048677 56.007118 -55.749093 1.275643 1.072647 -43.657469 7.125000 0.000000 0.000000 
-31.009276 17.286242 -1.319707 115.377010 84.770168 130.580698 -16.662287 1.470802 17.521565 -1.311785 4.462703 13.647808 -2.369065 14.298619 18.261680 0.829700 -5.811000 -16.237200 9.593819 16.012162 -55.439061 -13.763364 -23.571272 72.101387 -0.053817 0.054542 3.140285 -3.265600 11.113100 -32.662100 1.490706 -7.185480 -2.865470 9.400616 -4.768661 2.487557 3.259462 -0.926203 5.072235 4.287100 0.608500 -0.802200 -72.474611 -0.077868 43.197281 85.684761 -60.232476 -57.571069 -1.618194 -0.328882 -25.064795 -7.125000 0.000000 0.000000 79.991183 19.715677 1.667923 -77.255194 57.099798 -59.557329 1.228171 1.083278 -42.525976 7.125000 0.000000 0.000000 
-30.213836 17.321947 -1.352474 108.216922 85.046001 123.180737 -17.617542 1.215360 20.602503 -1.200341 4.361953 13.232375 -4.114219 19.317370 14.572400 0.523600 -4.637200 -12.876500 9.344416 15.385843 -54.657414 -11.177323 -22.732235 65.173945 -0.418049 1.318871 4.092248 -3.140900 10.919700 -32.009500 1.542594 -7.472043 -2.909460 9.517580 -4.927330 2.405853 3.021854 -0.475348 4.865275 4.384500 0.829000 -1.234400 -71.375359 1.992903 43.804603 87.802910 -60.388848 -59.249091 -1.595796 -0.357523 -25.643226 -7.125000 0.000000 0.000000 81.496777 19.839815 2.270978 -82.226237 58.179325 -63.862312 1.181423 1.048622 -39.600914 7.125000 0.000000 0.000000 
-29.416588 17.353810 -1.380269 100.439816 85.025720 115.059787 -18.393105 1.821162 23.149900 -1.069033 4.327753 13.177659 -4.890039 21.933383 13.705893 1.162400 -6.844400 -19.255300 9.097254 14.479524 -53.529905 -8.645289 -21.540647 58.223527 -0.680216 1.886955 5.331790 -3.111800 10.873900 -31.855800 1.634578 -7.743319 -3.014828 10.499707 -5.107753 1.982866 2.912591 0.155662 4.901569 4.251800 1.096300 -1.118000 -71.187086 4.037001 44.558222 87.927787 -60.534484 -58.955815 -1.569234 -0.194586 -24.517108 -7.125000 0.000000 0.000000 82.319862 19.908777 3.208089 -87.252916 58.994274 -67.902543 1.126864 1.002441 -35.703287 7.125000 0.000000 0.000000 
-28.614143 17.391774 -1.399025 93.764458 84.877819 108.089578 -18.854322 2.880219 24.719408 -0.807187 4.675100 14.306180 -5.037571 22.572216 13.768256 1.690900 -8.190200 -23.293300 8.972615 13.452680 -52.133942 -6.290912 -20.067532 51.500520 -0.855545 1.835872 6.940992 -3.123600 10.892500 -31.918200 1.727798 -8.017699 -3.052214 11.481938 -5.332504 2.061641 2.777472 0.826568 4.962214 4.187200 1.415300 -1.205500 -71.263902 5.763617 45.273534 86.302357 -60.820977 -57.251228 -1.557127 0.017582 -22.657358 -7.125000 0.000000 0.000000 83.105456 20.487002 4.456342 -92.102415 59.564557 -71.568359 1.069968 0.916561 -31.727785 7.125000 0.000000 0.000000 
-27.813505 17.432224 -1.408177 88.321406 84.658580 102.609373 -19.177455 4.126099 25.375932 -0.432611 5.332089 16.411028 -4.867815 21.928587 13.697306 1.318600 -7.273000 -20.526700 8.828117 12.282070 -50.741724 -4.226047 -18.438483 45.267086 -1.028650 1.582178 9.009893 -3.194800 11.003900 -32.292900 1.619259 -8.152243 -2.935395 9.644709 -5.391568 3.282766 2.762590 0.994079 4.868422 4.077600 1.536900 -1.495600 -69.237455 6.619031 46.683643 83.162349 -61.109849 -54.901694 -1.472719 -0.094208 -20.917603 -7.125000 0.000000 0.000000 85.873946 22.061264 5.442871 -97.252154 59.803322 -75.400176 1.054700 0.676464 -28.187150 7.125000 0.000000 0.000000 
-27.024958 17.454370 -1.413149 81.883480 84.177079 96.042013 -19.657942 5.565966 25.263403 0.099462 6.303797 19.512739 -4.251395 20.025964 14.587947 1.329100 -7.300500 -20.608900 8.611436 11.177784 -49.594321 -2.535277 -16.796165 39.802000 -1.277765 1.572954 10.975167 -3.562900 11.554800 -34.174700 1.735841 -8.274609 -3.062162 11.338137 -5.524858 2.761060 2.670433 1.634019 5.003424 4.014800 1.805300 -1.330400 -70.127132 9.194500 47.835101 80.841800 -61.399556 -52.494466 -1.573313 0.030296 -18.955601 -7.125000 0.000000 0.000000 86.067842 22.701706 6.875134 -102.035341 59.660897 -78.783103 0.967100 0.603567 -25.627453 7.125000 0.000000 0.000000 
-26.242286 17.459341 -1.416877 73.571552 83.863420 87.658724 -20.252537 7.130084 24.696718 0.820749 7.547695 23.603328 -3.594664 17.637748 14.787830 1.473600 -7.670800 -21.718600 8.492240 10.301912 -48.515545 -1.227431 -15.347539 35.373707 -1.654763 1.915469 14.044504 -2.528700 9.890000 -28.621100 1.676244 -8.152215 -3.042388 10.663317 -5.451048 3.191684 2.594417 2.146475 5.155209 3.881700 2.030400 -1.290000 -69.293410 11.203607 49.464368 77.345975 -61.563130 -49.556778 -1.470506 0.050978 -17.808514 -7.125000 0.000000 0.000000 87.866150 24.121980 8.501941 -106.462161 59.187093 -81.917060 0.923190 0.402341 -22.838347 7.125000 0.000000 0.000000 
-25.460630 17.446234 -1.428063 66.477081 83.547360 80.260436 -20.736803 8.625442 23.933196 1.773815 8.998084 28.534086 -3.016658 15.359126 14.521239 1.595700 -7.967600 -22.615800 9.073976 9.044540 -47.607677 -0.370009 -14.188441 32.288819 -1.958103 2.415153 15.466781 -2.760700 10.297200 -29.944600 1.693035 -7.933354 -3.052923 10.990857 -5.370335 3.181213 2.342869 2.786303 5.292308 3.549300 2.289800 -1.266800 -69.463461 13.417324 51.278638 73.377994 -61.629286 -46.055842 -1.553871 -0.226983 -17.677114 -7.125000 0.000000 0.000000 88.505508 25.255943 10.246485 -110.243994 58.558095 -84.555813 0.864081 0.265240 -19.451641 7.125000 0.000000 0.000000 
-24.685867 17.407931 -1.447836 60.981289 83.098927 74.320084 -21.157406 10.200210 22.885129 3.003994 10.599834 34.223132 -2.496370 13.348090 14.281621 1.914900 -8.686500 -24.819600 9.776196 7.669245 -46.710797 0.121144 -13.376025 30.383545 -2.116052 2.360961 17.175911 -2.356100 9.571400 -27.599600 1.735700 -7.824750 -3.031810 11.503413 -5.358947 3.188256 2.556808 2.545747 4.523421 3.634200 2.282300 -2.079200 -70.300641 15.502196 52.776837 68.738902 -61.506016 -42.109371 -1.593138 -0.390427 -18.656309 -7.125000 0.000000 0.000000 88.772159 26.757562 12.437001 -113.511911 57.829973 -86.837037 0.776947 0.158123 -15.469521 7.125000 0.000000 0.000000 
-23.921499 17.347143 -1.473372 55.517739 82.731145 68.236109 -21.237410 12.001166 21.600944 4.551723 12.256727 40.599270 -2.121657 11.828786 13.738082 2.121300 -9.114300 -26.153500 10.688592 6.318909 -45.737601 0.305306 -12.949279 29.635373 -2.159700 2.251268 18.005203 -1.638300 8.068200 -22.921500 1.714437 -7.645503 -3.010440 11.546285 -5.246726 3.169337 3.360931 2.707486 4.179626 4.231700 2.500900 -2.195000 -70.935627 17.853517 54.465998 63.455393 -60.950549 -37.817981 -1.523962 -0.475240 -19.718762 -7.125000 0.000000 0.000000 89.286801 28.262641 14.746972 -116.763941 56.865628 -89.182530 0.677056 0.042862 -11.387600 7.125000 0.000000 0.000000 
-23.163911 17.278559 -1.505460 50.484971 82.573181 62.523674 -20.805465 13.787964 20.049582 6.396876 13.850546 47.438893 -1.897208 10.989908 13.239143 2.228600 -9.326800 -26.823100 11.919051 4.736493 -44.984981 0.257383 -12.847736 29.837791 -2.130103 2.107870 18.537971 -1.580200 7.930800 -22.504000 1.677827 -7.380140 -2.965174 10.768308 -5.106200 3.298062 3.047081 3.242929 4.216788 3.861600 2.704200 -2.054600 -71.385665 20.076571 56.183328 58.330152 -60.059446 -33.809585 -1.450230 -0.639163 -21.323320 -7.125000 0.000000 0.000000 89.822791 30.061142 17.201970 -119.649101 55.809950 -91.298236 0.588207 -0.054504 -7.196162 7.125000 0.000000 0.000000 
-22.409373 17.203761 -1.540713 45.115575 82.585699 56.421665 -19.903980 15.437369 18.315986 8.487958 15.273907 54.559274 -1.857502 10.920405 12.483867 2.085900 -9.042700 -25.928900 13.459388 3.225197 -44.590109 -0.138193 -13.239162 31.456718 -2.033322 2.326414 17.809398 -1.724800 8.267700 -23.530300 1.729735 -7.076469 -2.987436 11.159465 -4.961253 2.789617 2.556259 3.780863 4.269290 3.736700 2.903000 -2.043500 -73.117055 22.788732 57.217591 53.184094 -58.956406 -29.699649 -1.415671 -0.753495 -22.213317 -7.125000 0.000000 0.000000 89.086322 31.616782 19.693214 -122.061189 54.784564 -93.064016 0.477756 -0.042946 -3.146179 7.125000 0.000000 0.000000 
-21.644779 17.128623 -1.577886 37.738923 82.617473 48.274163 -18.583838 17.222782 16.479142 10.781338 16.458082 61.939967 -1.888076 11.121467 11.363456 1.684400 -8.175200 -23.247600 15.124016 2.215403 -44.290484 -0.854888 -14.052117 34.235662 -1.900280 3.127155 14.270008 -3.069400 10.806500 -31.630000 1.720424 -6.562809 -2.956715 10.761298 -4.701202 2.600368 2.235849 4.166562 4.274935 3.377600 3.032500 -1.774600 -74.451855 25.013665 58.149376 47.610911 -57.223301 -25.498195 -1.326138 -0.938057 -22.393198 -7.125000 0.000000 0.000000 88.476960 33.356156 22.216111 -124.210729 53.710951 -94.675015 0.377161 -0.044965 0.346459 7.125000 0.000000 0.000000 
-20.882896 17.063881 -1.619353 29.685979 82.372390 39.494499 -17.017624 19.164164 14.401418 13.202490 17.364642 69.414294 -1.850190 11.307596 10.891382 0.972400 -6.277800 -17.592700 16.516752 1.847226 -43.294412 -2.112059 -15.260042 38.219971 -0.872204 0.142259 9.728129 -2.042900 8.954800 -25.654000 1.626068 -5.804059 -2.855136 9.338561 -4.294830 2.848003 1.911898 4.256077 4.116547 2.945500 3.036400 -1.618600 -74.936441 26.497335 59.464768 42.050806 -54.925173 -21.529343 -1.196576 -1.175503 -22.442320 -7.125000 0.000000 0.000000 88.098216 35.384948 24.677341 -125.988377 52.653282 -96.047159 0.298634 -0.081316 3.166000 7.125000 0.000000 0.000000 
